<svg xmlns="http://www.w3.org/2000/svg" width="256" height="256" viewBox="0 0 256 256">
  <title>FlipBits Core Ring Reference</title>
  <defs>
    <clipPath id="left-split">
      <rect x="0" y="0" width="128" height="256" />
    </clipPath>
    <clipPath id="right-split">
      <rect x="128" y="0" width="128" height="256" />
    </clipPath>
    <g id="core-ring">
      <path
        d="M 120.1964 88.7686 A 40 40 0 0 1 135.8036 88.7686 M 150.2228 94.7412 A 40 40 0 0 1 161.2588 105.7772 M 167.2314 120.1964 A 40 40 0 0 1 167.2314 135.8036 M 161.2588 150.2228 A 40 40 0 0 1 150.2228 161.2588 M 135.8036 167.2314 A 40 40 0 0 1 120.1964 167.2314 M 105.7772 161.2588 A 40 40 0 0 1 94.7412 150.2228 M 88.7686 135.8036 A 40 40 0 0 1 88.7686 120.1964 M 94.7412 105.7772 A 40 40 0 0 1 105.7772 94.7412"
        fill="none"
        stroke="currentColor"
        stroke-width="3.5" />
    </g>
  </defs>

  <rect x="0" y="0" width="128" height="256" fill="#9E1B1B" />
  <rect x="128" y="0" width="128" height="256" fill="#E8E2D0" />

  <use href="#core-ring" color="#E8E2D0" clip-path="url(#left-split)" />
  <use href="#core-ring" color="#9E1B1B" clip-path="url(#right-split)" />
</svg>
