<svg xmlns="http://www.w3.org/2000/svg" width="256" height="256" viewBox="0 0 256 256">
  <title>FlipBits Inner Gear Reference</title>
  <path
    d="M 198.13 114.05 L 198.13 141.95 L 192.56 145.30 A 66.84 66.84 0 0 1 185.88 161.42 L 187.45 167.72 L 167.72 187.45 L 161.42 185.88 A 66.84 66.84 0 0 1 145.30 192.56 L 141.95 198.13 L 114.05 198.13 L 110.70 192.56 A 66.84 66.84 0 0 1 94.58 185.88 L 88.28 187.45 L 68.55 167.72 L 70.12 161.42 A 66.84 66.84 0 0 1 63.44 145.30 L 57.87 141.95 L 57.87 114.05 L 63.44 110.70 A 66.84 66.84 0 0 1 70.12 94.58 L 68.55 88.28 L 88.28 68.55 L 94.58 70.12 A 66.84 66.84 0 0 1 110.70 63.44 L 114.05 57.87 L 141.95 57.87 L 145.30 63.44 A 66.84 66.84 0 0 1 161.42 70.12 L 167.72 68.55 L 187.45 88.28 L 185.88 94.58 A 66.84 66.84 0 0 1 192.56 110.70 Z"
    fill="none"
    stroke="#C5A059"
    stroke-width="3"
    stroke-linejoin="round"
    stroke-linecap="round" />
</svg>
