<svg xmlns="http://www.w3.org/2000/svg" width="432" height="432" viewBox="0 0 432 432">
  <defs>
    <clipPath id="left-wave-clip"><rect x="0" y="0" width="128" height="256" /></clipPath>
    <clipPath id="right-wave-clip"><rect x="128" y="0" width="128" height="256" /></clipPath>
    <path id="gear-shape" d="M 242.02 112.99 L 242.02 143.01 L 236.33 147.10 A 110 110 0 0 1 231.37 165.62 L 234.25 172.01 L 219.24 198.01 L 212.26 198.71 A 110 110 0 0 1 198.71 212.26 L 198.01 219.24 L 172.01 234.25 L 165.62 231.37 A 110 110 0 0 1 147.10 236.33 L 143.01 242.02 L 112.99 242.02 L 108.90 236.33 A 110 110 0 0 1 90.38 231.37 L 83.99 234.25 L 57.99 219.24 L 57.29 212.26 A 110 110 0 0 1 43.74 198.71 L 36.76 198.01 L 21.75 172.01 L 24.63 165.62 A 110 110 0 0 1 19.67 147.10 L 13.98 143.01 L 13.98 112.99 L 19.67 108.90 A 110 110 0 0 1 24.63 90.38 L 21.75 83.99 L 36.76 57.99 L 43.74 57.29 A 110 110 0 0 1 57.29 43.74 L 57.99 36.76 L 83.99 21.75 L 90.38 24.63 A 110 110 0 0 1 108.90 19.67 L 112.99 13.98 L 143.01 13.98 L 147.10 19.67 A 110 110 0 0 1 165.62 24.63 L 172.01 21.75 L 198.01 36.76 L 198.71 43.74 A 110 110 0 0 1 212.26 57.29 L 219.24 57.99 L 234.25 83.99 L 231.37 90.38 A 110 110 0 0 1 236.33 108.90 Z M 192.13 96.38 L 199.35 123.32 L 194.84 128.00 A 66.84 66.84 0 0 1 192.56 145.30 L 195.71 150.98 L 181.76 175.14 L 175.26 175.26 A 66.84 66.84 0 0 1 161.42 185.88 L 159.62 192.13 L 132.68 199.35 L 128.00 194.84 A 66.84 66.84 0 0 1 110.70 192.56 L 105.02 195.71 L 80.86 181.76 L 80.74 175.26 A 66.84 66.84 0 0 1 70.12 161.42 L 63.87 159.62 L 56.65 132.68 L 61.16 128.00 A 66.84 66.84 0 0 1 63.44 110.70 L 60.29 105.02 L 74.24 80.86 L 80.74 80.74 A 66.84 66.84 0 0 1 94.58 70.12 L 96.38 63.87 L 123.32 56.65 L 128.00 61.16 A 66.84 66.84 0 0 1 145.30 63.44 L 150.98 60.29 L 175.14 74.24 L 175.26 80.74 A 66.84 66.84 0 0 1 185.88 94.58 Z" stroke="#C5A059" stroke-width="3" stroke-linejoin="round" />
    <g id="gear-rotated">
      <use href="#gear-shape" transform="translate(128 128) rotate(15) translate(-128 -128)" />
    </g>
    <path id="inner-c8" d="M 198.13 114.05 L 198.13 141.95 L 192.56 145.30 A 66.84 66.84 0 0 1 185.88 161.42 L 187.45 167.72 L 167.72 187.45 L 161.42 185.88 A 66.84 66.84 0 0 1 145.30 192.56 L 141.95 198.13 L 114.05 198.13 L 110.70 192.56 A 66.84 66.84 0 0 1 94.58 185.88 L 88.28 187.45 L 68.55 167.72 L 70.12 161.42 A 66.84 66.84 0 0 1 63.44 145.30 L 57.87 141.95 L 57.87 114.05 L 63.44 110.70 A 66.84 66.84 0 0 1 70.12 94.58 L 68.55 88.28 L 88.28 68.55 L 94.58 70.12 A 66.84 66.84 0 0 1 110.70 63.44 L 114.05 57.87 L 141.95 57.87 L 145.30 63.44 A 66.84 66.84 0 0 1 161.42 70.12 L 167.72 68.55 L 187.45 88.28 L 185.88 94.58 A 66.84 66.84 0 0 1 192.56 110.70 Z" />
  <g id="data-core">
    <!-- Center dashed core ring with inverted per-side color via currentColor -->
    <circle cx="128" cy="128" r="40" fill="none" stroke="currentColor" stroke-width="3.5" pathLength="8" stroke-dasharray="0.5 0.5" stroke-dashoffset="0.25" />
  </g>
  </defs>

  <g transform="scale(1.6875)">
    <use href="#inner-c8" fill="#9E1B1B" clip-path="url(#left-wave-clip)" />
    <use href="#inner-c8" fill="#E8E2D0" clip-path="url(#right-wave-clip)" />

    <g>
      <use href="#gear-rotated" fill="#E8E2D0" clip-path="url(#left-wave-clip)" fill-rule="evenodd" />
      <use href="#gear-rotated" fill="#9E1B1B" clip-path="url(#right-wave-clip)" fill-rule="evenodd" />
    </g>

    <use href="#data-core" color="#E8E2D0" clip-path="url(#left-wave-clip)" />
    <use href="#data-core" color="#9E1B1B" clip-path="url(#right-wave-clip)" />

    <use
      href="#inner-c8"
      fill="none"
      stroke="#C5A059"
      stroke-width="3"
      stroke-linejoin="round"
      stroke-linecap="round" />
  </g>
</svg>
