<svg xmlns="http://www.w3.org/2000/svg" width="512" height="512" viewBox="0 0 512 512">
  <defs>
    <linearGradient id="app-bg" x1="64" y1="48" x2="448" y2="464" gradientUnits="userSpaceOnUse">
      <stop offset="0" stop-color="#271A17" />
      <stop offset="1" stop-color="#120C0B" />
    </linearGradient>
    <clipPath id="app-left-half">
      <rect x="64" y="64" width="192" height="384" rx="0" />
    </clipPath>
    <clipPath id="app-right-half">
      <rect x="256" y="64" width="192" height="384" rx="0" />
    </clipPath>
    <path id="app-gear" d="M455.98 225.99L455.98 286.01L444.6 294.2A220 220 0 0 1 434.68 331.24L440.44 344.02L410.42 396.02L396.46 397.42A220 220 0 0 1 369.34 424.52L367.94 438.48L315.94 468.5L303.16 462.74A220 220 0 0 1 266.12 472.66L257.94 484.04L197.92 484.04L189.74 472.66A220 220 0 0 1 152.7 462.74L139.92 468.5L87.92 438.48L86.52 424.52A220 220 0 0 1 59.4 397.42L45.44 396.02L15.42 344.02L21.18 331.24A220 220 0 0 1 11.26 294.2L-0.12 286.01L-0.12 225.99L11.26 217.8A220 220 0 0 1 21.18 180.76L15.42 167.98L45.44 115.98L59.4 114.58A220 220 0 0 1 86.52 87.48L87.92 73.52L139.92 43.5L152.7 49.26A220 220 0 0 1 189.74 39.34L197.92 27.96L257.94 27.96L266.12 39.34A220 220 0 0 1 303.16 49.26L315.94 43.5L367.94 73.52L369.34 87.48A220 220 0 0 1 396.46 114.58L410.42 115.98L440.44 167.98L434.68 180.76A220 220 0 0 1 444.6 217.8Z M256 86C161.04 86 84 163.04 84 258C84 352.96 161.04 430 256 430C350.96 430 428 352.96 428 258C428 163.04 350.96 86 256 86Z" />
  </defs>

  <rect x="32" y="32" width="448" height="448" rx="112" fill="url(#app-bg)" />

  <g transform="translate(0 2)">
    <circle cx="256" cy="256" r="172" fill="#9E1B1B" clip-path="url(#app-left-half)" />
    <circle cx="256" cy="256" r="172" fill="#E8E2D0" clip-path="url(#app-right-half)" />

    <g transform="translate(56 54) scale(0.8)">
      <use href="#app-gear" fill="#E8E2D0" clip-path="url(#app-left-half)" fill-rule="evenodd" />
      <use href="#app-gear" fill="#9E1B1B" clip-path="url(#app-right-half)" fill-rule="evenodd" />
      <use href="#app-gear" fill="none" stroke="#C5A059" stroke-width="8" stroke-linejoin="round" />
    </g>

    <g stroke-linecap="round" stroke-linejoin="round" fill="none">
      <path d="M178 210C208 174 252 170 286 186C312 198 335 221 351 256C335 291 312 314 286 326C252 342 208 338 178 302" stroke="#E8E2D0" stroke-width="22" clip-path="url(#app-left-half)" />
      <path d="M178 210C208 174 252 170 286 186C312 198 335 221 351 256C335 291 312 314 286 326C252 342 208 338 178 302" stroke="#9E1B1B" stroke-width="22" clip-path="url(#app-right-half)" />
      <path d="M201 256H311" stroke="#E8E2D0" stroke-width="18" clip-path="url(#app-left-half)" />
      <path d="M201 256H311" stroke="#9E1B1B" stroke-width="18" clip-path="url(#app-right-half)" />
      <circle cx="256" cy="256" r="18" fill="#E8E2D0" clip-path="url(#app-left-half)" />
      <circle cx="256" cy="256" r="18" fill="#9E1B1B" clip-path="url(#app-right-half)" />
    </g>
  </g>
</svg>
