<svg xmlns="http://www.w3.org/2000/svg" width="256" height="256" viewBox="0 0 256 256">
  <path d="M 128 37 L 128 219 A 91 91 0 0 1 128 37" fill="#9E1B1B" />
  <path d="M 128 37 L 128 219 A 91 91 0 0 0 128 37" fill="#E8E2D0" />

  <defs>
    <clipPath id="left-wave-clip"><rect x="0" y="0" width="128" height="256" /></clipPath>
    <clipPath id="right-wave-clip"><rect x="128" y="0" width="128" height="256" /></clipPath>

    <path id="gear-shape" d="M 242.02 112.99 L 242.02 143.01 L 236.33 147.10 A 110 110 0 0 1 231.37 165.62 L 234.25 172.01 L 219.24 198.01 L 212.26 198.71 A 110 110 0 0 1 198.71 212.26 L 198.01 219.24 L 172.01 234.25 L 165.62 231.37 A 110 110 0 0 1 147.10 236.33 L 143.01 242.02 L 112.99 242.02 L 108.90 236.33 A 110 110 0 0 1 90.38 231.37 L 83.99 234.25 L 57.99 219.24 L 57.29 212.26 A 110 110 0 0 1 43.74 198.71 L 36.76 198.01 L 21.75 172.01 L 24.63 165.62 A 110 110 0 0 1 19.67 147.10 L 13.98 143.01 L 13.98 112.99 L 19.67 108.90 A 110 110 0 0 1 24.63 90.38 L 21.75 83.99 L 36.76 57.99 L 43.74 57.29 A 110 110 0 0 1 57.29 43.74 L 57.99 36.76 L 83.99 21.75 L 90.38 24.63 A 110 110 0 0 1 108.90 19.67 L 112.99 13.98 L 143.01 13.98 L 147.10 19.67 A 110 110 0 0 1 165.62 24.63 L 172.01 21.75 L 198.01 36.76 L 198.71 43.74 A 110 110 0 0 1 212.26 57.29 L 219.24 57.99 L 234.25 83.99 L 231.37 90.38 A 110 110 0 0 1 236.33 108.90 Z M 128 36.5 A 91.5 91.5 0 0 0 128 219.5 A 91.5 91.5 0 0 0 128 36.5 Z" stroke="#C5A059" stroke-width="3" stroke-linejoin="round" />

    <g id="gear-rotated">
      <use href="#gear-shape" transform="translate(128 128) rotate(15) translate(-128 -128)" />
    </g>

    <g id="data-core">
      <circle cx="128" cy="128" r="77" fill="none" stroke="currentColor" stroke-width="2" pathLength="16" stroke-dasharray="0.5 0.5" stroke-dashoffset="0.25" opacity="0.85" />
      <circle cx="128" cy="128" r="51" fill="none" stroke="currentColor" stroke-width="2" pathLength="8" stroke-dasharray="0.5 0.5" stroke-dashoffset="0.25" opacity="0.85" />
    </g>
  </defs>

  <g>
    <use href="#gear-rotated" fill="#E8E2D0" clip-path="url(#left-wave-clip)" fill-rule="evenodd" />
    <use href="#gear-rotated" fill="#9E1B1B" clip-path="url(#right-wave-clip)" fill-rule="evenodd" />
  </g>

  <use href="#data-core" color="#E8E2D0" clip-path="url(#left-wave-clip)" />
  <use href="#data-core" color="#9E1B1B" clip-path="url(#right-wave-clip)" />
</svg>
